# xmcd
#
# Track frame offsets: 
#        150
#        16767
#        33755
#        52460
#        72050
#        98285
#        117842
#        136510
#        154227
#        168832
#
# Disc length: 2499 seconds
#
# Revision: 1
# Processed by: cddbd v1.5.2PL0 Copyright (c) Steve Scherf et al.
# Submitted via: ExactAudioCopy v0.99pb4
#
DISCID=6e09c10a
DTITLE=Green on Red - This Time Around
DYEAR=1990
DGENRE=
TTITLE0=This Time Around
TTITLE1=Cool Million
TTITLE2=Rev. Luther
TTITLE3=Good Patient Woman
TTITLE4=You Couldn't Get Arrested
TTITLE5=The Quarter
TTITLE6=Foot
TTITLE7=Hold the Line
TTITLE8=Pills and Booze
TTITLE9=We're All Waiting
EXTD=
EXTT0=
EXTT1=
EXTT2=
EXTT3=
EXTT4=
EXTT5=
EXTT6=
EXTT7=
EXTT8=
EXTT9=
PLAYORDER=
